<svg width="48" height="48" viewBox="0 0 48 48" fill="none" xmlns="http://www.w3.org/2000/svg">
<rect width="48" height="48" rx="4" fill="#2D3449"/>
<path d="M23 31.425V24.575L17 21.1V27.95L23 31.425ZM25 31.425L31 27.95V21.1L25 24.575V31.425ZM24 22.85L29.925 19.425L24 16L18.075 19.425L24 22.85ZM16 29.7C15.6833 29.5167 15.4375 29.275 15.2625 28.975C15.0875 28.675 15 28.3417 15 27.975V20.025C15 19.6583 15.0875 19.325 15.2625 19.025C15.4375 18.725 15.6833 18.4833 16 18.3L23 14.275C23.3167 14.0917 23.65 14 24 14C24.35 14 24.6833 14.0917 25 14.275L32 18.3C32.3167 18.4833 32.5625 18.725 32.7375 19.025C32.9125 19.325 33 19.6583 33 20.025V27.975C33 28.3417 32.9125 28.675 32.7375 28.975C32.5625 29.275 32.3167 29.5167 32 29.7L25 33.725C24.6833 33.9083 24.35 34 24 34C23.65 34 23.3167 33.9083 23 33.725L16 29.7Z" fill="#C0C1FF"/>
</svg>
